<svg width="27" height="25" viewBox="0 0 27 25" fill="none" xmlns="http://www.w3.org/2000/svg">
<path d="M1.5 17.7375L5.9875 13.25H17.75C18.413 13.25 19.0489 12.9866 19.5178 12.5178C19.9866 12.0489 20.25 11.413 20.25 10.75V4.5C20.25 3.83696 19.9866 3.20107 19.5178 2.73223C19.0489 2.26339 18.413 2 17.75 2H4C3.33696 2 2.70107 2.26339 2.23223 2.73223C1.76339 3.20107 1.5 3.83696 1.5 4.5V17.7375ZM1.5 19.5H0.25V4.5C0.25 3.50544 0.645088 2.55161 1.34835 1.84835C2.05161 1.14509 3.00544 0.75 4 0.75H17.75C18.7446 0.75 19.6984 1.14509 20.4017 1.84835C21.1049 2.55161 21.5 3.50544 21.5 4.5V10.75C21.5 11.7446 21.1049 12.6984 20.4017 13.4017C19.6984 14.1049 18.7446 14.5 17.75 14.5H6.5L1.5 19.5ZM25.25 22.7375V9.5C25.25 8.83696 24.9866 8.20107 24.5178 7.73223C24.0489 7.26339 23.413 7 22.75 7V5.75C23.7446 5.75 24.6984 6.14509 25.4017 6.84835C26.1049 7.55161 26.5 8.50544 26.5 9.5V24.5H25.25L20.25 19.5H9C7.45 19.5 6.125 18.5625 5.55 17.225L6.55 16.225C6.7625 17.375 7.75 18.25 9 18.25H20.7625L25.25 22.7375Z" fill="#FF9A62"/>
</svg>
